# xmcd
#
# Track frame offsets:
# 150
# 14475
# 29902
# 45123
# 62370
# 83077
# 101460
# 117555
# 131500
# 142067
# 154237
# 167048
#
# Disc length: 2520 seconds
#
#
# Revision: 1
# Processed by: cddbd v1.5.2PL0 Copyright (c) Steve Scherf et al.
# Submitted via: FreeRIP 2.945 
#
DISCID=9d09d60c
DTITLE=Wino - Adrift
DYEAR=2010
DGENRE=Acoustic Stoner
TTITLE0=Adrift
TTITLE1=I Don't Care
TTITLE2=Hold On Love
TTITLE3=Mala Suerte
TTITLE4=Old And Alone
TTITLE5=Iron Horse/Born To Lose
TTITLE6=Suzanes Song
TTITLE7=D-Bear
TTITLE8=Whatever
TTITLE9=Shot In The Head
TTITLE10=O.B.E.
TTITLE11=Green Speed
EXTD=
EXTT0=
EXTT1=
EXTT2=
EXTT3=
EXTT4=
EXTT5=
EXTT6=
EXTT7=
EXTT8=
EXTT9=
EXTT10=
EXTT11=
PLAYORDER=
